<svg width="151" height="60" viewBox="0 0 151 60" fill="none" xmlns="http://www.w3.org/2000/svg">
<path d="M25.776 8.13601L28.976 15.24L8.75203 23.688L28.976 31.88L25.776 39.24L0.176025 28.168V19.272L25.776 8.13601Z" fill="#735DFD"/>
<path d="M84.7555 0.64801L77.3315 45H63.6995L58.1955 11.144L52.3715 45H39.0595L31.7635 0.64801H42.2595L46.6755 37.064L52.8195 0.64801H63.8275L69.5875 37.064L74.7715 0.64801H84.7555Z" fill="#735DFD"/>
<path d="M120.014 13C117.795 13.896 114.531 14.344 110.222 14.344C112.441 15.2827 114.062 16.4347 115.086 17.8C116.11 19.1653 116.622 20.936 116.622 23.112C116.622 25.288 116.046 27.2507 114.894 29C113.742 30.7067 112.078 32.0507 109.902 33.032C107.769 34.0133 105.251 34.504 102.35 34.504C100.985 34.504 99.6834 34.376 98.446 34.12C98.1047 34.2907 97.8274 34.568 97.614 34.952C97.4434 35.2933 97.358 35.656 97.358 36.04C97.358 36.68 97.5927 37.192 98.062 37.576C98.574 37.9173 99.5767 38.088 101.07 38.088H106.19C108.793 38.088 111.075 38.5147 113.038 39.368C115.001 40.2213 116.515 41.3947 117.582 42.888C118.649 44.3813 119.182 46.0667 119.182 47.944C119.182 51.4853 117.646 54.2373 114.574 56.2C111.545 58.2053 107.15 59.208 101.39 59.208C97.2514 59.208 93.9874 58.76 91.598 57.864C89.2087 57.0107 87.5234 55.7947 86.542 54.216C85.6034 52.6373 85.134 50.6533 85.134 48.264H94.222C94.222 49.288 94.414 50.0987 94.798 50.696C95.2247 51.2933 95.9714 51.7413 97.038 52.04C98.1047 52.3387 99.6407 52.488 101.646 52.488C104.419 52.488 106.339 52.1467 107.406 51.464C108.473 50.824 109.006 49.8853 109.006 48.648C109.006 47.624 108.601 46.8133 107.79 46.216C106.979 45.6187 105.763 45.32 104.142 45.32H99.214C95.7154 45.32 93.0914 44.7013 91.342 43.464C89.6354 42.184 88.782 40.5627 88.782 38.6C88.782 37.3627 89.1447 36.168 89.87 35.016C90.5954 33.8213 91.5767 32.84 92.814 32.072C90.6807 30.92 89.1234 29.576 88.142 28.04C87.2034 26.4613 86.734 24.5627 86.734 22.344C86.734 18.5467 88.0994 15.5387 90.83 13.32C93.5607 11.0587 97.166 9.92801 101.646 9.92801C105.059 10.0133 107.939 9.67201 110.286 8.90401C112.675 8.13601 115.129 7.00534 117.646 5.51201L120.014 13ZM101.902 16.584C100.323 16.584 99.0647 17.096 98.126 18.12C97.23 19.1013 96.782 20.4667 96.782 22.216C96.782 24.0507 97.23 25.48 98.126 26.504C99.0647 27.4853 100.323 27.976 101.902 27.976C103.566 27.976 104.825 27.4853 105.678 26.504C106.574 25.5227 107.022 24.0507 107.022 22.088C107.022 18.4187 105.315 16.584 101.902 16.584Z" fill="#735DFD"/>
<path d="M125.376 8.13601L150.976 19.272V28.168L125.376 39.24L122.176 31.88L142.4 23.688L122.176 15.24L125.376 8.13601Z" fill="#735DFD"/>
</svg>
