<svg width="17" height="27" viewBox="0 0 17 27" fill="none" xmlns="http://www.w3.org/2000/svg">
<path d="M6.01071 24.392H10.9893V23.1648H6.01071V24.392ZM1.82143 27C1.33571 27 0.910714 26.8159 0.546428 26.4477C0.182143 26.0795 0 25.65 0 25.1591V1.84091C0 1.35 0.182143 0.920455 0.546428 0.552273C0.910714 0.184091 1.33571 0 1.82143 0H15.1786C15.6643 0 16.0893 0.184091 16.4536 0.552273C16.8179 0.920455 17 1.35 17 1.84091V25.1591C17 25.65 16.8179 26.0795 16.4536 26.4477C16.0893 26.8159 15.6643 27 15.1786 27H1.82143ZM1.82143 22.3977V25.1591H15.1786V22.3977H1.82143ZM1.82143 20.5568H15.1786V4.60227H1.82143V20.5568ZM1.82143 2.76136H15.1786V1.84091H1.82143V2.76136Z" fill="white"/>
</svg>
