<svg width="135" height="23" viewBox="0 0 135 23" fill="none" xmlns="http://www.w3.org/2000/svg">
<path d="M4.54087 22.5L6.32837 14.3658L0.333374 8.89474L8.25337 8.17105L11.3334 0.5L14.4134 8.17105L22.3334 8.89474L16.3384 14.3658L18.1259 22.5L11.3334 18.1868L4.54087 22.5Z" fill="#4931DC"/>
<path d="M44.5159 19.1316L48.8334 16.4105L53.1509 19.1605L51.9959 14.0079L55.7909 10.5342L50.7859 10.0711L48.8334 5.20789L46.8809 10.0421L41.8759 10.5053L45.6709 13.9789L44.5159 19.1316ZM42.0409 22.75L43.8284 14.6158L37.8334 9.14474L45.7534 8.42105L48.8334 0.75L51.9134 8.42105L59.8334 9.14474L53.8384 14.6158L55.6259 22.75L48.8334 18.4368L42.0409 22.75Z" fill="#4931DC"/>
<path d="M81.6825 19.3816L86 16.6605L90.3175 19.4105L89.1625 14.2579L92.9575 10.7842L87.9525 10.3211L86 5.45789L84.0475 10.2921L79.0425 10.7553L82.8375 14.2289L81.6825 19.3816ZM79.2075 23L80.995 14.8658L75 9.39474L82.92 8.67105L86 1L89.08 8.67105L97 9.39474L91.005 14.8658L92.7925 23L86 18.6868L79.2075 23Z" fill="#4931DC"/>
<path d="M119.682 19.3816L124 16.6605L128.317 19.4105L127.162 14.2579L130.958 10.7842L125.952 10.3211L124 5.45789L122.048 10.2921L117.043 10.7553L120.837 14.2289L119.682 19.3816ZM117.207 23L118.995 14.8658L113 9.39474L120.92 8.67105L124 1L127.08 8.67105L135 9.39474L129.005 14.8658L130.792 23L124 18.6868L117.207 23Z" fill="#4931DC"/>
</svg>
