<svg width="24" height="24" viewBox="0 0 24 24" fill="none" xmlns="http://www.w3.org/2000/svg">
<path d="M23.25 20.125C23.25 21.8512 21.8512 23.25 20.125 23.25H3.875C2.14938 23.25 0.75 21.8512 0.75 20.125V3.875C0.75 2.14875 2.14938 0.75 3.875 0.75H20.125C21.8512 0.75 23.25 2.14875 23.25 3.875V20.125Z" fill="#654DF4"/>
<path d="M15.75 20.125V13.8131C15.75 12.7575 15.2381 12.1269 14.38 12.1269C13.8706 12.1269 13.4963 12.4138 13.2681 12.9794C13.2575 13.0194 13.2425 13.1825 13.2488 13.6756L13.25 20.125H8.875V8.25H13.25V8.91313C13.8888 8.4725 14.6719 8.25 15.5863 8.25C18.4281 8.25 20.1244 10.1831 20.1244 13.4213L20.125 20.125H15.75ZM3.875 20.125V8.25H6.03563C4.78375 8.25 3.875 7.33 3.875 6.06188C3.875 4.795 4.79875 3.875 6.07125 3.875C7.32875 3.875 8.22438 4.76938 8.25 6.04938C8.25 7.32688 7.32563 8.25 6.05313 8.25H8.25V20.125H3.875Z" fill="black"/>
<path d="M16.0625 19.8125V13.8131C16.0625 12.58 15.4181 11.8144 14.38 11.8144C13.5706 11.8144 13.1706 12.3844 12.9781 12.8625C12.9269 12.9869 12.9338 13.4806 12.9363 13.6912L12.9375 19.8125H9.1875V8.5625H12.9375V9.58625C13.4344 9.07188 14.2344 8.5625 15.5863 8.5625C18.2319 8.5625 19.8119 10.3788 19.8119 13.4213L19.8125 19.8125H16.0625ZM4.1875 19.8125V8.5625H7.9375V19.8125H4.1875ZM6.03562 7.9375C4.965 7.9375 4.1875 7.14875 4.1875 6.06187C4.1875 4.97562 4.98 4.1875 6.07125 4.1875C7.14875 4.1875 7.91562 4.95562 7.9375 6.05562C7.9375 7.14875 7.145 7.9375 6.05312 7.9375H6.03562Z" fill="black"/>
<path d="M4.5 8.875H7.625V19.5H4.5V8.875ZM6.05312 7.625H6.03562C5.10312 7.625 4.5 6.93 4.5 6.06187C4.5 5.175 5.12187 4.5 6.07125 4.5C7.02187 4.5 7.6075 5.175 7.625 6.06187C7.625 6.92937 7.02187 7.625 6.05312 7.625ZM19.5 19.5H16.375V13.8131C16.375 12.4394 15.6094 11.5019 14.38 11.5019C13.4419 11.5019 12.9344 12.1344 12.6881 12.7456C12.5981 12.9644 12.625 13.5694 12.625 13.875V19.5H9.5V8.875H12.625V10.51C13.0756 9.8125 13.7813 8.875 15.5863 8.875C17.8225 8.875 19.4994 10.2812 19.4994 13.4213L19.5 19.5Z" fill="#060606"/>
</svg>
