<svg width="16" height="8" viewBox="0 0 16 8" fill="none" xmlns="http://www.w3.org/2000/svg">
<path d="M7.4375 7.75H4.25C3.2125 7.75 2.32812 7.38437 1.59687 6.65312C0.865625 5.92188 0.5 5.0375 0.5 4C0.5 2.9625 0.865625 2.07812 1.59687 1.34687C2.32812 0.615625 3.2125 0.25 4.25 0.25H7.4375V1.375H4.25C3.525 1.375 2.90625 1.63125 2.39375 2.14375C1.88125 2.65625 1.625 3.275 1.625 4C1.625 4.725 1.88125 5.34375 2.39375 5.85625C2.90625 6.36875 3.525 6.625 4.25 6.625H7.4375V7.75ZM5.09375 4.5625V3.4375H10.9062V4.5625H5.09375ZM8.5625 7.75V6.625H11.75C12.475 6.625 13.0937 6.36875 13.6062 5.85625C14.1187 5.34375 14.375 4.725 14.375 4C14.375 3.275 14.1187 2.65625 13.6062 2.14375C13.0937 1.63125 12.475 1.375 11.75 1.375H8.5625V0.25H11.75C12.7875 0.25 13.6719 0.615625 14.4031 1.34687C15.1344 2.07812 15.5 2.9625 15.5 4C15.5 5.0375 15.1344 5.92188 14.4031 6.65312C13.6719 7.38437 12.7875 7.75 11.75 7.75H8.5625Z" fill="#735DFD"/>
</svg>
