<svg width="50" height="50" viewBox="0 0 50 50" fill="none" xmlns="http://www.w3.org/2000/svg">
<path d="M6.52174 0C4.70039 -2.32084e-07 3.0997 0.515146 1.91703 1.50718C0.734371 2.49922 0.0127378 4.00611 0.0127378 5.67291C0.0127378 9.0065 2.8313 11.577 6.52174 11.577C8.41438 11.577 10.0377 10.9842 11.2007 9.92249C12.3638 8.86081 13.0307 7.32309 13.0307 5.67291C13.0304 5.65552 13.0297 5.63814 13.0286 5.62078C12.8931 2.43656 10.1883 0 6.52174 0ZM6.52174 2.29364C9.36136 2.29364 10.7821 3.78891 10.8781 5.69557C10.8722 6.70318 10.51 7.53721 9.80384 8.18186C9.09186 8.83179 7.99867 9.28335 6.52174 9.28335C3.69043 9.28335 2.16118 7.67724 2.16118 5.67291C2.16118 4.67074 2.5265 3.91481 3.24601 3.31127C3.96552 2.70774 5.08222 2.29364 6.52174 2.29364ZM1.08696 13.9114C0.798687 13.9115 0.522232 14.0337 0.318394 14.2513C0.114556 14.469 2.88227e-05 14.7641 0 15.0718V48.724C2.88227e-05 49.0317 0.114556 49.3269 0.318394 49.5445C0.522232 49.7621 0.798687 49.8844 1.08696 49.8844H11.9565C12.2448 49.8844 12.5212 49.7621 12.7251 49.5445C12.9289 49.3269 13.0434 49.0317 13.0435 48.724V15.0718C13.0434 14.7641 12.9289 14.469 12.7251 14.2513C12.5212 14.0337 12.2448 13.9115 11.9565 13.9114H1.08696ZM17.3913 13.9114C17.103 13.9115 16.8266 14.0337 16.6227 14.2513C16.4189 14.469 16.3044 14.7641 16.3043 15.0718V48.8396C16.3044 49.1473 16.4189 49.4425 16.6227 49.6601C16.8266 49.8777 17.103 50 17.3913 50H28.2609C28.5491 50 28.8256 49.8777 29.0294 49.6601C29.2333 49.4425 29.3478 49.1473 29.3478 48.8396V29.5771C29.3478 27.2949 31.0145 25.5156 33.1522 25.5156C35.2899 25.5156 36.9565 27.2949 36.9565 29.5771V48.724C36.9565 49.0317 37.0711 49.3269 37.2749 49.5445C37.4788 49.7621 37.7552 49.8844 38.0435 49.8844H48.913C49.2013 49.8844 49.4778 49.7621 49.6816 49.5445C49.8854 49.3269 50 49.0317 50 48.724V28.9969C50 24.188 48.6757 20.3939 46.4525 17.812C44.2293 15.23 41.1357 13.9114 37.8269 13.9114C33.5789 13.9114 31.0028 15.5613 29.3478 16.9099V15.0718C29.3478 14.7641 29.2333 14.469 29.0294 14.2513C28.8256 14.0337 28.5491 13.9115 28.2609 13.9114H17.3913ZM2.17391 16.2323H10.8696V47.5636H2.17391V16.2323ZM18.4783 16.2323H27.1739V19.2489C27.1742 19.4825 27.2404 19.7105 27.364 19.9033C27.4876 20.096 27.6628 20.2444 27.8667 20.3291C28.0706 20.4139 28.2937 20.4309 28.5068 20.3781C28.7199 20.3253 28.9131 20.205 29.0612 20.0331C29.0612 20.0331 32.323 16.2323 37.8269 16.2323C40.6051 16.2323 43.0533 17.2939 44.8518 19.3826C46.6503 21.4714 47.8261 24.6384 47.8261 28.9969V47.5636H39.1304V29.5771C39.1318 29.4133 39.1007 29.2511 39.0391 29.1011C38.7988 25.8149 36.2911 23.1948 33.1522 23.1948C29.8551 23.1948 27.1739 26.0571 27.1739 29.5771V47.6792H18.4783V16.2323Z" fill="#654DF4"/>
</svg>
