<svg width="151" height="59" viewBox="0 0 151 59" fill="none" xmlns="http://www.w3.org/2000/svg">
<path d="M25.6402 8.0644L28.8232 15.1005L8.70653 23.4677L28.8232 31.5813L25.6402 38.871L0.176025 27.9048V19.0939L25.6402 8.0644Z" fill="white"/>
<path d="M84.3068 0.64801L76.9222 44.5759H63.3625L57.8877 11.0436L52.0946 44.5759H38.8532L31.596 0.64801H42.0363L46.4288 36.7158L52.5402 0.64801H63.4899L69.2193 36.7158L74.3758 0.64801H84.3068Z" fill="white"/>
<path d="M119.378 12.8819C117.171 13.7693 113.925 14.213 109.638 14.213C111.845 15.1427 113.458 16.2837 114.476 17.636C115.495 18.9883 116.004 20.742 116.004 22.8972C116.004 25.0524 115.431 26.9963 114.285 28.7289C113.14 30.4192 111.484 31.7504 109.32 32.7223C107.198 33.6943 104.694 34.1803 101.808 34.1803C100.45 34.1803 99.1555 34.0535 97.9247 33.7999C97.5852 33.969 97.3093 34.2436 97.0971 34.624C96.9274 34.962 96.8425 35.3212 96.8425 35.7016C96.8425 36.3354 97.0759 36.8425 97.5427 37.2229C98.052 37.5609 99.0494 37.73 100.535 37.73H105.628C108.216 37.73 110.487 38.1526 112.439 38.9977C114.392 39.8429 115.898 41.005 116.959 42.4841C118.02 43.9631 118.551 45.6323 118.551 47.4917C118.551 50.9992 117.023 53.7249 113.967 55.6688C110.954 57.6549 106.583 58.648 100.853 58.648C96.7364 58.648 93.4897 58.2043 91.113 57.3169C88.7364 56.4717 87.06 55.2673 86.0838 53.7037C85.1502 52.1402 84.6833 50.1752 84.6833 47.8087H93.7231C93.7231 48.8229 93.9141 49.6258 94.2961 50.2174C94.7205 50.809 95.4632 51.2527 96.5242 51.5486C97.5852 51.8444 99.113 51.9923 101.108 51.9923C103.866 51.9923 105.776 51.6542 106.837 50.9781C107.898 50.3442 108.429 49.4145 108.429 48.189C108.429 47.1748 108.025 46.3719 107.219 45.7803C106.413 45.1886 105.203 44.8928 103.59 44.8928H98.6886C95.2085 44.8928 92.5984 44.2801 90.8584 43.0546C89.1608 41.7868 88.312 40.181 88.312 38.2371C88.312 37.0116 88.6727 35.8283 89.3942 34.6874C90.1157 33.5041 91.0918 32.5322 92.3226 31.7715C90.2006 30.6305 88.6515 29.2994 87.6754 27.7781C86.7417 26.2145 86.2748 24.334 86.2748 22.1365C86.2748 18.3755 87.6329 15.3963 90.3491 13.1988C93.0653 10.9591 96.6515 9.83927 101.108 9.83927C104.503 9.92378 107.368 9.58572 109.702 8.82506C112.079 8.0644 114.519 6.94455 117.023 5.4655L119.378 12.8819ZM101.362 16.4316C99.7921 16.4316 98.5401 16.9387 97.6064 17.9529C96.7151 18.9249 96.2695 20.2772 96.2695 22.0098C96.2695 23.8269 96.7151 25.2425 97.6064 26.2568C98.5401 27.2287 99.7921 27.7147 101.362 27.7147C103.018 27.7147 104.27 27.2287 105.118 26.2568C106.01 25.2848 106.455 23.8269 106.455 21.883C106.455 18.2487 104.758 16.4316 101.362 16.4316Z" fill="white"/>
<path d="M124.712 8.0644L150.176 19.0939V27.9048L124.712 38.871L121.529 31.5813L141.646 23.4677L121.529 15.1005L124.712 8.0644Z" fill="white"/>
</svg>
