<svg width="40" height="20" viewBox="0 0 40 20" fill="none" xmlns="http://www.w3.org/2000/svg">
<path d="M6.79045 2.55738L7.63926 4.98361L2.2748 7.86885L7.63926 10.6667L6.79045 13.1803L0 9.39891V6.36066L6.79045 2.55738Z" fill="#735DFD"/>
<path d="M22.4349 0L20.4656 15.1475H16.8497L15.3898 3.5847L13.845 15.1475H10.3139L8.37865 0H11.1627L12.3341 12.4372L13.9638 0H16.8837L18.4115 12.4372L19.7866 0H22.4349Z" fill="#735DFD"/>
<path d="M31.7873 4.21858C31.1988 4.52459 30.333 4.6776 29.1899 4.6776C29.7784 4.99818 30.2085 5.39162 30.4801 5.85792C30.7517 6.32423 30.8875 6.92896 30.8875 7.67213C30.8875 8.4153 30.7347 9.08561 30.4292 9.68306C30.1236 10.2659 29.6822 10.725 29.105 11.0601C28.5392 11.3953 27.8714 11.5628 27.1019 11.5628C26.7397 11.5628 26.3945 11.5191 26.0663 11.4317C25.9758 11.49 25.9022 11.5847 25.8456 11.7158C25.8004 11.8324 25.7777 11.9563 25.7777 12.0874C25.7777 12.306 25.84 12.4809 25.9645 12.612C26.1003 12.7286 26.3662 12.7869 26.7623 12.7869H28.1204C28.8108 12.7869 29.4163 12.9326 29.9369 13.224C30.4575 13.5155 30.8592 13.9162 31.1422 14.4262C31.4251 14.9362 31.5666 15.5118 31.5666 16.153C31.5666 17.3625 31.1592 18.3024 30.3443 18.9727C29.5408 19.6576 28.3751 20 26.8472 20C25.7494 20 24.8836 19.847 24.2499 19.541C23.6161 19.2495 23.1691 18.8342 22.9088 18.2951C22.6598 17.7559 22.5353 17.0783 22.5353 16.2623H24.9459C24.9459 16.612 24.9968 16.8889 25.0987 17.0929C25.2118 17.2969 25.4099 17.4499 25.6928 17.5519C25.9758 17.6539 26.3832 17.7049 26.9151 17.7049C27.6508 17.7049 28.16 17.5883 28.443 17.3552C28.7259 17.1366 28.8674 16.816 28.8674 16.3934C28.8674 16.0437 28.7599 15.7668 28.5448 15.5628C28.3298 15.3588 28.0073 15.2568 27.5772 15.2568H26.27C25.342 15.2568 24.646 15.0455 24.182 14.623C23.7293 14.1858 23.5029 13.6321 23.5029 12.9617C23.5029 12.5392 23.5991 12.1311 23.7915 11.7377C23.9839 11.3297 24.2442 10.9945 24.5724 10.7322C24.0065 10.3388 23.5935 9.87978 23.3332 9.35519C23.0842 8.81603 22.9597 8.16758 22.9597 7.40984C22.9597 6.11293 23.3218 5.08561 24.0462 4.32787C24.7705 3.55555 25.7268 3.1694 26.9151 3.1694C27.8205 3.19854 28.5844 3.08197 29.2069 2.81967C29.8407 2.55738 30.4914 2.17122 31.1591 1.6612L31.7873 4.21858ZM26.983 5.44262C26.5643 5.44262 26.2304 5.61749 25.9814 5.96721C25.7438 6.30237 25.6249 6.76867 25.6249 7.36612C25.6249 7.99271 25.7438 8.48087 25.9814 8.8306C26.2304 9.16576 26.5643 9.33333 26.983 9.33333C27.4244 9.33333 27.7583 9.16576 27.9846 8.8306C28.2223 8.49545 28.3411 7.99271 28.3411 7.3224C28.3411 6.06922 27.8884 5.44262 26.983 5.44262Z" fill="#735DFD"/>
<path d="M33.2095 2.55738L40 6.36066V9.39891L33.2095 13.1803L32.3607 10.6667L37.7252 7.86885L32.3607 4.98361L33.2095 2.55738Z" fill="#735DFD"/>
</svg>
